{
    "asset": {
        "copyright": "2024 (c) Adobe Inc.",
        "generator": "Adobe Substance 3D Stager - 3b65cae5d66550310f3fa94441098965a88f7a29",
        "version": "2.0"
    },
    "accessors": [
        {
            "bufferView": 0,
            "componentType": 5126,
            "count": 24,
            "type": "VEC3",
            "max": [
                0.009999999776482582,
                0.03862762451171875,
                0.009999999776482582
            ],
            "min": [
                -0.016100117936730386,
                -0.02996269427239895,
                -0.012030355632305146
            ]
        },
        {
            "bufferView": 1,
            "componentType": 5126,
            "count": 24,
            "type": "VEC3"
        },
        {
            "bufferView": 2,
            "componentType": 5126,
            "count": 24,
            "type": "VEC4"
        },
        {
            "bufferView": 3,
            "componentType": 5126,
            "count": 24,
            "type": "VEC2"
        },
        {
            "bufferView": 4,
            "componentType": 5125,
            "count": 36,
            "type": "SCALAR",
            "max": [
                23.0
            ],
            "min": [
                0.0
            ]
        }
    ],
    "bufferViews": [
        {
            "buffer": 0,
            "byteOffset": 0,
            "byteLength": 288,
            "target": 34962
        },
        {
            "buffer": 0,
            "byteOffset": 288,
            "byteLength": 288,
            "target": 34962
        },
        {
            "buffer": 0,
            "byteOffset": 576,
            "byteLength": 384,
            "target": 34962
        },
        {
            "buffer": 0,
            "byteOffset": 960,
            "byteLength": 192,
            "target": 34962
        },
        {
            "buffer": 0,
            "byteOffset": 1152,
            "byteLength": 144,
            "target": 34963
        }
    ],
    "buffers": [
        {
            "byteLength": 1296,
            "uri": "particles_binary.bin"
        }
    ],
    "materials": [
        {
            "pbrMetallicRoughness": {
                "baseColorFactor": [
                    0.01032982300966978,
                    0.011612244881689549,
                    0.026241222396492959,
                    1.0
                ],
                "metallicFactor": 0.0
            },
            "name": "Dark Blue2",
            "doubleSided": true
        }
    ],
    "meshes": [
        {
            "name": "Cube-252E002_n3d2",
            "primitives": [
                {
                    "attributes": {
                        "TEXCOORD_0": 3,
                        "TANGENT": 2,
                        "NORMAL": 1,
                        "POSITION": 0
                    },
                    "indices": 4,
                    "material": 0
                }
            ]
        },
        {
            "name": "Cube-252E003_n3d2",
            "primitives": [
                {
                    "attributes": {
                        "POSITION": 0,
                        "NORMAL": 1,
                        "TANGENT": 2,
                        "TEXCOORD_0": 3
                    },
                    "indices": 4,
                    "material": 0
                }
            ]
        },
        {
            "name": "Cube-252E006_n3d2",
            "primitives": [
                {
                    "attributes": {
                        "TEXCOORD_0": 3,
                        "TANGENT": 2,
                        "NORMAL": 1,
                        "POSITION": 0
                    },
                    "indices": 4,
                    "material": 0
                }
            ]
        },
        {
            "name": "Cube-252E001_n3d2",
            "primitives": [
                {
                    "attributes": {
                        "TEXCOORD_0": 3,
                        "TANGENT": 2,
                        "NORMAL": 1,
                        "POSITION": 0
                    },
                    "indices": 4,
                    "material": 0
                }
            ]
        },
        {
            "name": "Cube-252E007_n3d2",
            "primitives": [
                {
                    "attributes": {
                        "POSITION": 0,
                        "NORMAL": 1,
                        "TANGENT": 2,
                        "TEXCOORD_0": 3
                    },
                    "indices": 4,
                    "material": 0
                }
            ]
        },
        {
            "name": "Cube-252E008_n3d2",
            "primitives": [
                {
                    "attributes": {
                        "POSITION": 0,
                        "NORMAL": 1,
                        "TANGENT": 2,
                        "TEXCOORD_0": 3
                    },
                    "indices": 4,
                    "material": 0
                }
            ]
        }
    ],
    "nodes": [
        {
            "name": "working_cam_n3d"
        },
        {
            "children": [
                2
            ],
            "translation": [
                0.15648619830608369,
                -0.9103032350540161,
                -0.20436644554138184
            ],
            "name": "VERSACRUM FOR AR-particles_n3d"
        },
        {
            "children": [
                3,
                8,
                9,
                10
            ],
            "translation": [
                -0.8492958545684815,
                4.409554481506348,
                -0.06650006771087647
            ],
            "rotation": [
                -0.22504667937755586,
                0.684154212474823,
                0.6937344670295715,
                0.00441720150411129
            ],
            "scale": [
                118.86019134521485,
                118.86021423339844,
                118.8602066040039
            ],
            "name": "0-contorl Anchor%2E002_n3d"
        },
        {
            "children": [
                4
            ],
            "translation": [
                0.004020863212645054,
                0.0012874758103862405,
                -0.01655828207731247
            ],
            "rotation": [
                -0.15600858628749848,
                -0.006774233188480139,
                0.9743144512176514,
                -0.1622554212808609
            ],
            "scale": [
                0.8334283828735352,
                0.8334282636642456,
                0.8334280848503113
            ],
            "name": "0-contorl Anchor%2E001_n3d"
        },
        {
            "children": [
                5,
                6,
                7
            ],
            "translation": [
                -0.000024540320737287403,
                -5.734365871035152e-9,
                -0.02405993454158306
            ],
            "rotation": [
                0.7071067690849304,
                6.807386654372749e-9,
                6.8073853221051198e-9,
                0.7071068286895752
            ],
            "scale": [
                0.01009474415332079,
                0.010094747878611088,
                0.01009474415332079
            ],
            "name": "default_group_n3d"
        },
        {
            "translation": [
                1.1969441175460816,
                1.5403001308441163,
                1.9330923557281495
            ],
            "rotation": [
                0.8695964813232422,
                -0.1221332922577858,
                0.3658418655395508,
                -0.3082939684391022
            ],
            "scale": [
                24.02443504333496,
                24.024417877197267,
                24.02444076538086
            ],
            "mesh": 0,
            "name": "Cube%2E002_n3d"
        },
        {
            "translation": [
                2.711277484893799,
                2.0121943950653078,
                -1.7039533853530884
            ],
            "rotation": [
                0.8007537722587586,
                -0.31438687443733218,
                -0.4462570548057556,
                -0.2465945929288864
            ],
            "scale": [
                21.977676391601564,
                21.977657318115236,
                21.97766876220703
            ],
            "mesh": 1,
            "name": "Cube%2E003_n3d"
        },
        {
            "translation": [
                -1.234962821006775,
                4.1989006996154789,
                -0.9644346237182617
            ],
            "rotation": [
                -0.06214368715882301,
                -0.34300681948661806,
                0.2278032898902893,
                0.9091700315475464
            ],
            "scale": [
                17.64752960205078,
                17.64752197265625,
                17.64753532409668
            ],
            "mesh": 2,
            "name": "Cube%2E006_n3d"
        },
        {
            "translation": [
                -0.0013619839446619154,
                0.018098335713148118,
                -0.0034225278068333866
            ],
            "rotation": [
                -0.26327958703041079,
                0.6927234530448914,
                0.4535147249698639,
                -0.4951186180114746
            ],
            "scale": [
                0.1781473010778427,
                0.17814725637435914,
                0.1781473457813263
            ],
            "mesh": 3,
            "name": "Cube%2E001_n3d"
        },
        {
            "translation": [
                0.002131892368197441,
                0.01489417627453804,
                0.015298302285373211
            ],
            "rotation": [
                -0.20765002071857453,
                -0.4565344750881195,
                0.7516136765480042,
                0.4284094274044037
            ],
            "scale": [
                0.22185900807380677,
                0.22185884416103364,
                0.22185899317264558
            ],
            "mesh": 4,
            "name": "Cube%2E007_n3d"
        },
        {
            "translation": [
                0.012303358875215054,
                -0.011967337690293789,
                -0.0020220577716827394
            ],
            "rotation": [
                -0.4531262516975403,
                0.33184561133384707,
                -0.400677889585495,
                0.7238869667053223
            ],
            "scale": [
                0.2425205409526825,
                0.24252036213874818,
                0.24252060055732728
            ],
            "mesh": 5,
            "name": "Cube%2E008_n3d"
        }
    ],
    "scenes": [
        {
            "nodes": [
                1
            ],
            "name": "scene"
        }
    ],
    "scene": 0
}